<mxfile host="65bd71144e" modified="2020-10-12T08:35:47.143Z" agent="5.0 (Windows NT 10.0; Win64; x64) AppleWebKit/537.36 (KHTML, like Gecko) Code/1.49.0 Chrome/83.0.4103.122 Electron/9.2.1 Safari/537.36" version="13.6.5" etag="L1kupuLCOLl5EmeKp8eT">
    <diagram id="bK21UXmeYzUT-GQrNxp8" name="Page-1">
        <mxGraphModel dx="758" dy="618" grid="1" gridSize="10" guides="1" tooltips="1" connect="1" arrows="1" fold="1" page="1" pageScale="1" pageWidth="827" pageHeight="1169" math="0" shadow="0">
            <root>
                <mxCell id="0"/>
                <mxCell id="1" parent="0"/>
                <mxCell id="2" value="Client 1" style="rounded=0;whiteSpace=wrap;html=1;" vertex="1" parent="1">
                    <mxGeometry x="40" y="40" width="120" height="60" as="geometry"/>
                </mxCell>
                <mxCell id="3" value="Server" style="rounded=0;whiteSpace=wrap;html=1;" vertex="1" parent="1">
                    <mxGeometry x="360" y="40" width="120" height="60" as="geometry"/>
                </mxCell>
                <mxCell id="4" value="" style="endArrow=none;html=1;entryX=0.5;entryY=1;entryDx=0;entryDy=0;" edge="1" parent="1" target="2">
                    <mxGeometry width="50" height="50" relative="1" as="geometry">
                        <mxPoint x="100" y="440" as="sourcePoint"/>
                        <mxPoint x="420" y="180" as="targetPoint"/>
                    </mxGeometry>
                </mxCell>
                <mxCell id="5" value="" style="endArrow=none;html=1;entryX=0.5;entryY=1;entryDx=0;entryDy=0;" edge="1" parent="1" target="3">
                    <mxGeometry width="50" height="50" relative="1" as="geometry">
                        <mxPoint x="420" y="440" as="sourcePoint"/>
                        <mxPoint x="420" y="180" as="targetPoint"/>
                    </mxGeometry>
                </mxCell>
                <mxCell id="6" value="" style="endArrow=classic;html=1;" edge="1" parent="1">
                    <mxGeometry width="50" height="50" relative="1" as="geometry">
                        <mxPoint x="100" y="160" as="sourcePoint"/>
                        <mxPoint x="420" y="160" as="targetPoint"/>
                    </mxGeometry>
                </mxCell>
                <mxCell id="7" value="member/&amp;lt;Client ID&amp;gt;/send/get_game_historys" style="text;html=1;strokeColor=none;fillColor=none;align=center;verticalAlign=middle;whiteSpace=wrap;rounded=0;" vertex="1" parent="1">
                    <mxGeometry x="135" y="140" width="250" height="20" as="geometry"/>
                </mxCell>
                <mxCell id="8" value="{&quot;id&quot;:&quot;damody&quot;}" style="shape=note;whiteSpace=wrap;html=1;backgroundOutline=1;darkOpacity=0.05;" vertex="1" parent="1">
                    <mxGeometry x="160" y="170" width="200" height="70" as="geometry"/>
                </mxCell>
                <mxCell id="9" value="" style="endArrow=classic;html=1;" edge="1" parent="1">
                    <mxGeometry width="50" height="50" relative="1" as="geometry">
                        <mxPoint x="420" y="280" as="sourcePoint"/>
                        <mxPoint x="100" y="280" as="targetPoint"/>
                    </mxGeometry>
                </mxCell>
                <mxCell id="10" value="member/&amp;lt;Client ID&amp;gt;/res/get_game_historys" style="text;html=1;strokeColor=none;fillColor=none;align=center;verticalAlign=middle;whiteSpace=wrap;rounded=0;" vertex="1" parent="1">
                    <mxGeometry x="135" y="260" width="250" height="20" as="geometry"/>
                </mxCell>
                <mxCell id="11" value="[{&quot;gameId&quot;:&quot;1&quot;,&quot;steamId&quot;:&quot;Client ID&quot;,&quot;hero&quot;:&quot;C17&quot;,&quot;level&quot;:1,&lt;br&gt;&quot;isWin&quot;:true,&quot;mode&quot;:&quot;ng&quot;,&quot;k&quot;:0,&quot;d&quot;:0,&quot;a&quot;:0,&quot;cs&quot;:0,&lt;br&gt;&quot;money&quot;:22000,&quot;playTime&quot;:4025,&quot;date&quot;:&quot;2020-09-30 15:37:44&quot;,&quot;items&quot;:[&quot;item_S01&quot;,&quot;x&quot;,&quot;x&quot;,&quot;x&quot;,&quot;x&quot;,&quot;x&quot;]},{&quot;gameId&quot;:&quot;2&quot;,&quot;steamId&quot;:&quot;Client ID&quot;,&quot;hero&quot;:&quot;A26&quot;,&quot;level&quot;:1,&quot;isWin&quot;:true,&lt;br&gt;&quot;mode&quot;:&quot;ng&quot;,&quot;k&quot;:0,&quot;d&quot;:0,&quot;a&quot;:0,&quot;cs&quot;:0,&quot;money&quot;:24235,&lt;br&gt;&quot;playTime&quot;:4499,&quot;date&quot;:&quot;2020-09-29 22:01:37&quot;,&quot;items&quot;:[&quot;item_S01&quot;,&quot;x&quot;,&quot;x&quot;,&quot;x&quot;,&quot;x&quot;,&quot;x&quot;]}]" style="shape=note;whiteSpace=wrap;html=1;backgroundOutline=1;darkOpacity=0.05;" vertex="1" parent="1">
                    <mxGeometry x="110" y="290" width="300" height="190" as="geometry"/>
                </mxCell>
                <mxCell id="12" value="get_game_historys" style="rounded=0;whiteSpace=wrap;html=1;" vertex="1" parent="1">
                    <mxGeometry x="200" y="20" width="120" height="60" as="geometry"/>
                </mxCell>
            </root>
        </mxGraphModel>
    </diagram>
</mxfile>